<svg xmlns="http://www.w3.org/2000/svg" xmlns:xlink="http://www.w3.org/1999/xlink" width="500" zoomAndPan="magnify" viewBox="0 0 375 374.999991" height="500" preserveAspectRatio="xMidYMid meet" version="1.0"><defs><clipPath id="12368e25be"><path d="M 23.511719 0 L 282 0 L 282 82 L 23.511719 82 Z M 23.511719 0 " clip-rule="nonzero"/></clipPath><clipPath id="312da4cc42"><path d="M 23.511719 0 L 278 0 L 278 82 L 23.511719 82 Z M 23.511719 0 " clip-rule="nonzero"/></clipPath></defs><path fill="#f8953b" d="M 294.746094 331.121094 C 229.519531 400.378906 168.355469 344.894531 168.355469 344.894531 L 76.515625 270.175781 C 51.457031 249.066406 51.773438 218.347656 51.890625 214.816406 L 51.890625 81.972656 L 253.875 81.972656 C 254.09375 81.972656 254.308594 81.972656 254.527344 81.964844 L 254.480469 170.328125 L 294.746094 212.085938 C 351.3125 270.273438 294.746094 331.121094 294.746094 331.121094 Z M 294.746094 331.121094 " fill-opacity="1" fill-rule="nonzero"/><path fill="#eb7330" d="M 294.746094 331.121094 C 254.84375 373.484375 216.460938 369.171875 192.675781 359.433594 C 195.488281 329.332031 208.402344 300.007812 231.4375 276.953125 C 254.28125 254.085938 283.3125 241.183594 313.132812 238.226562 C 335.625 287.148438 294.746094 331.121094 294.746094 331.121094 Z M 294.746094 331.121094 " fill-opacity="1" fill-rule="nonzero"/><path fill="#eb7330" d="M 96.855469 286.722656 L 76.515625 270.175781 C 51.457031 249.066406 51.773438 218.347656 51.890625 214.816406 L 51.890625 180.390625 C 84.015625 184.371094 109.308594 211.296875 110.269531 244.660156 C 110.730469 260.410156 105.671875 275.050781 96.855469 286.722656 Z M 96.855469 286.722656 " fill-opacity="1" fill-rule="nonzero"/><g clip-path="url(#12368e25be)"><path fill="#ffe076" d="M 253.871094 0.234375 L 51.589844 0.234375 C 36.132812 0.234375 23.554688 12.816406 23.554688 28.285156 L 23.554688 53.921875 C 23.554688 69.386719 36.132812 81.96875 51.589844 81.96875 L 253.871094 81.96875 C 269.332031 81.96875 281.910156 69.386719 281.910156 53.921875 L 281.910156 28.285156 C 281.910156 12.816406 269.332031 0.234375 253.871094 0.234375 Z M 253.871094 0.234375 " fill-opacity="1" fill-rule="nonzero"/></g><path fill="#f4c9e2" d="M 93.152344 139.109375 C 93.152344 139.835938 93.0625 140.554688 92.886719 141.269531 C 92.710938 141.980469 92.449219 142.671875 92.105469 143.34375 C 91.757812 144.015625 91.332031 144.652344 90.832031 145.257812 C 90.328125 145.863281 89.757812 146.421875 89.121094 146.933594 C 88.480469 147.449219 87.785156 147.910156 87.03125 148.3125 C 86.28125 148.714844 85.488281 149.058594 84.652344 149.335938 C 83.816406 149.613281 82.957031 149.824219 82.070312 149.964844 C 81.183594 150.105469 80.289062 150.175781 79.382812 150.175781 C 78.480469 150.175781 77.585938 150.105469 76.699219 149.964844 C 75.8125 149.824219 74.949219 149.613281 74.117188 149.335938 C 73.28125 149.058594 72.488281 148.714844 71.734375 148.3125 C 70.984375 147.910156 70.289062 147.449219 69.648438 146.933594 C 69.011719 146.421875 68.4375 145.863281 67.9375 145.257812 C 67.433594 144.652344 67.011719 144.015625 66.664062 143.34375 C 66.320312 142.671875 66.058594 141.980469 65.882812 141.269531 C 65.703125 140.554688 65.617188 139.835938 65.617188 139.109375 C 65.617188 138.382812 65.703125 137.664062 65.882812 136.949219 C 66.058594 136.238281 66.320312 135.542969 66.664062 134.871094 C 67.011719 134.203125 67.433594 133.5625 67.9375 132.960938 C 68.4375 132.355469 69.011719 131.796875 69.648438 131.28125 C 70.289062 130.769531 70.984375 130.308594 71.734375 129.90625 C 72.488281 129.5 73.28125 129.160156 74.117188 128.882812 C 74.949219 128.605469 75.8125 128.394531 76.699219 128.253906 C 77.585938 128.109375 78.480469 128.039062 79.382812 128.039062 C 80.289062 128.039062 81.183594 128.109375 82.070312 128.253906 C 82.957031 128.394531 83.816406 128.605469 84.652344 128.882812 C 85.488281 129.160156 86.28125 129.5 87.03125 129.90625 C 87.785156 130.308594 88.480469 130.769531 89.121094 131.28125 C 89.757812 131.796875 90.328125 132.355469 90.832031 132.960938 C 91.332031 133.5625 91.757812 134.203125 92.105469 134.871094 C 92.449219 135.542969 92.710938 136.238281 92.886719 136.949219 C 93.0625 137.664062 93.152344 138.382812 93.152344 139.109375 Z M 93.152344 139.109375 " fill-opacity="1" fill-rule="nonzero"/><path fill="#f4c9e2" d="M 238.875 139.109375 C 238.875 139.835938 238.785156 140.554688 238.609375 141.269531 C 238.433594 141.980469 238.171875 142.671875 237.828125 143.34375 C 237.480469 144.015625 237.058594 144.652344 236.554688 145.257812 C 236.050781 145.863281 235.480469 146.421875 234.84375 146.933594 C 234.203125 147.449219 233.507812 147.910156 232.757812 148.3125 C 232.003906 148.714844 231.210938 149.058594 230.375 149.335938 C 229.542969 149.613281 228.679688 149.824219 227.792969 149.964844 C 226.90625 150.105469 226.011719 150.175781 225.109375 150.175781 C 224.203125 150.175781 223.308594 150.105469 222.421875 149.964844 C 221.535156 149.824219 220.675781 149.613281 219.839844 149.335938 C 219.003906 149.058594 218.210938 148.714844 217.460938 148.3125 C 216.707031 147.910156 216.011719 147.449219 215.375 146.933594 C 214.734375 146.421875 214.164062 145.863281 213.660156 145.257812 C 213.160156 144.652344 212.734375 144.015625 212.390625 143.34375 C 212.042969 142.671875 211.78125 141.980469 211.605469 141.269531 C 211.429688 140.554688 211.339844 139.835938 211.339844 139.109375 C 211.339844 138.382812 211.429688 137.664062 211.605469 136.949219 C 211.78125 136.238281 212.042969 135.542969 212.390625 134.871094 C 212.734375 134.203125 213.160156 133.5625 213.660156 132.960938 C 214.164062 132.355469 214.734375 131.796875 215.375 131.28125 C 216.011719 130.769531 216.707031 130.308594 217.460938 129.90625 C 218.210938 129.5 219.003906 129.160156 219.839844 128.882812 C 220.675781 128.605469 221.535156 128.394531 222.421875 128.253906 C 223.308594 128.109375 224.203125 128.039062 225.109375 128.039062 C 226.011719 128.039062 226.90625 128.109375 227.792969 128.253906 C 228.679688 128.394531 229.542969 128.605469 230.375 128.882812 C 231.210938 129.160156 232.003906 129.5 232.757812 129.90625 C 233.507812 130.308594 234.203125 130.769531 234.84375 131.28125 C 235.480469 131.796875 236.050781 132.355469 236.554688 132.960938 C 237.058594 133.5625 237.480469 134.203125 237.828125 134.871094 C 238.171875 135.542969 238.433594 136.238281 238.609375 136.949219 C 238.785156 137.664062 238.875 138.382812 238.875 139.109375 Z M 238.875 139.109375 " fill-opacity="1" fill-rule="nonzero"/><path fill="#ffffff" d="M 318.757812 281.890625 C 313.871094 310.546875 294.746094 331.121094 294.746094 331.121094 C 229.519531 400.378906 168.355469 344.894531 168.355469 344.894531 L 76.515625 270.175781 C 51.457031 249.066406 51.773438 218.347656 51.890625 214.816406 L 51.890625 81.972656 L 73.277344 81.972656 L 73.277344 208.484375 C 76.300781 241.058594 100.691406 259.757812 100.691406 259.757812 L 189.644531 335.15625 C 230.046875 356.875 265.914062 333.953125 265.914062 333.953125 C 290.675781 323.605469 308.300781 301.109375 318.757812 281.890625 Z M 318.757812 281.890625 " fill-opacity="0.349" fill-rule="nonzero"/><g clip-path="url(#312da4cc42)"><path fill="#ffffff" d="M 40.875 29.78125 L 40.875 56.925781 C 42.230469 71.785156 48.136719 79.011719 52.476562 81.972656 L 51.589844 81.972656 C 36.136719 81.972656 23.554688 69.386719 23.554688 53.921875 L 23.554688 28.28125 C 23.554688 12.816406 36.136719 0.230469 51.589844 0.230469 L 253.875 0.230469 C 263.722656 0.230469 272.40625 5.34375 277.40625 13.042969 L 58.511719 13.042969 C 39.519531 15.757812 40.875 29.78125 40.875 29.78125 Z M 40.875 29.78125 " fill-opacity="0.349" fill-rule="nonzero"/></g><path fill="#333333" d="M 115.539062 133.957031 C 120.316406 132.492188 122.5625 126.710938 120.652344 122.226562 C 116.972656 113.582031 109.0625 107.980469 99.78125 107.980469 C 90.5 107.980469 82.308594 113.570312 78.910156 122.226562 C 77.085938 126.878906 79.375 132.128906 84.023438 133.957031 C 88.671875 135.78125 93.921875 133.492188 95.75 128.839844 C 96.40625 127.160156 97.988281 126.078125 99.78125 126.078125 C 101.574219 126.078125 103.15625 127.160156 103.816406 128.839844 C 103.816406 128.839844 106.707031 136.664062 115.539062 133.957031 Z M 115.539062 133.957031 " fill-opacity="1" fill-rule="nonzero"/><path fill="#333333" d="M 201.5625 128.839844 C 202.351562 127.21875 203.804688 126.078125 205.597656 126.078125 C 207.386719 126.078125 208.96875 127.160156 209.628906 128.839844 C 211.453125 133.492188 216.703125 135.785156 221.351562 133.957031 C 226 132.132812 228.289062 126.882812 226.464844 122.230469 C 223.070312 113.574219 214.878906 107.980469 205.597656 107.980469 C 196.3125 107.980469 188.121094 113.574219 184.722656 122.230469 C 182.898438 126.878906 185.1875 132.132812 189.835938 133.957031 C 189.835938 133.957031 197.511719 137.148438 201.5625 128.839844 Z M 201.5625 128.839844 " fill-opacity="1" fill-rule="nonzero"/><path fill="#333333" d="M 161.957031 149.359375 L 143.417969 149.359375 C 138.421875 149.359375 134.375 145.308594 134.375 140.3125 C 134.375 135.316406 138.421875 131.265625 143.417969 131.265625 L 161.957031 131.265625 C 166.953125 131.265625 171.003906 135.316406 171.003906 140.3125 C 171.003906 145.308594 166.953125 149.359375 161.957031 149.359375 Z M 161.957031 149.359375 " fill-opacity="1" fill-rule="nonzero"/></svg>