<?xml version="1.0" standalone="no"?>
<svg xmlns:xlink="http://www.w3.org/1999/xlink" id="wave" style="transform:rotate(180deg); transition: 0.3s" viewBox="0 0 1440 370" version="1.1" xmlns="http://www.w3.org/2000/svg"><defs><linearGradient id="sw-gradient-0" x1="0" x2="0" y1="1" y2="0"><stop stop-color="rgba(208.577, 0, 221.218, 1)" offset="0%"/><stop stop-color="rgba(229, 179, 255, 1)" offset="100%"/></linearGradient></defs><path style="transform:translate(0, 0px); opacity:1" fill="url(#sw-gradient-0)" d="M0,111L48,92.5C96,74,192,37,288,18.5C384,0,480,0,576,6.2C672,12,768,25,864,61.7C960,99,1056,160,1152,178.8C1248,197,1344,173,1440,185C1536,197,1632,247,1728,271.3C1824,296,1920,296,2016,289.8C2112,284,2208,271,2304,265.2C2400,259,2496,259,2592,228.2C2688,197,2784,136,2880,117.2C2976,99,3072,123,3168,111C3264,99,3360,49,3456,74C3552,99,3648,197,3744,215.8C3840,234,3936,173,4032,166.5C4128,160,4224,210,4320,222C4416,234,4512,210,4608,178.8C4704,148,4800,111,4896,111C4992,111,5088,148,5184,185C5280,222,5376,259,5472,259C5568,259,5664,222,5760,222C5856,222,5952,259,6048,246.7C6144,234,6240,173,6336,160.3C6432,148,6528,185,6624,185C6720,185,6816,148,6864,129.5L6912,111L6912,370L6864,370C6816,370,6720,370,6624,370C6528,370,6432,370,6336,370C6240,370,6144,370,6048,370C5952,370,5856,370,5760,370C5664,370,5568,370,5472,370C5376,370,5280,370,5184,370C5088,370,4992,370,4896,370C4800,370,4704,370,4608,370C4512,370,4416,370,4320,370C4224,370,4128,370,4032,370C3936,370,3840,370,3744,370C3648,370,3552,370,3456,370C3360,370,3264,370,3168,370C3072,370,2976,370,2880,370C2784,370,2688,370,2592,370C2496,370,2400,370,2304,370C2208,370,2112,370,2016,370C1920,370,1824,370,1728,370C1632,370,1536,370,1440,370C1344,370,1248,370,1152,370C1056,370,960,370,864,370C768,370,672,370,576,370C480,370,384,370,288,370C192,370,96,370,48,370L0,370Z"/><defs><linearGradient id="sw-gradient-1" x1="0" x2="0" y1="1" y2="0"><stop stop-color="rgba(111.976, 0, 118.763, 1)" offset="0%"/><stop stop-color="rgba(229, 179, 255, 1)" offset="100%"/></linearGradient></defs><path style="transform:translate(0, 50px); opacity:0.9" fill="url(#sw-gradient-1)" d="M0,111L48,98.7C96,86,192,62,288,67.8C384,74,480,111,576,154.2C672,197,768,247,864,234.3C960,222,1056,148,1152,98.7C1248,49,1344,25,1440,24.7C1536,25,1632,49,1728,55.5C1824,62,1920,49,2016,67.8C2112,86,2208,136,2304,172.7C2400,210,2496,234,2592,240.5C2688,247,2784,234,2880,209.7C2976,185,3072,148,3168,154.2C3264,160,3360,210,3456,222C3552,234,3648,210,3744,215.8C3840,222,3936,259,4032,277.5C4128,296,4224,296,4320,289.8C4416,284,4512,271,4608,252.8C4704,234,4800,210,4896,191.2C4992,173,5088,160,5184,141.8C5280,123,5376,99,5472,98.7C5568,99,5664,123,5760,123.3C5856,123,5952,99,6048,123.3C6144,148,6240,222,6336,252.8C6432,284,6528,271,6624,246.7C6720,222,6816,185,6864,166.5L6912,148L6912,370L6864,370C6816,370,6720,370,6624,370C6528,370,6432,370,6336,370C6240,370,6144,370,6048,370C5952,370,5856,370,5760,370C5664,370,5568,370,5472,370C5376,370,5280,370,5184,370C5088,370,4992,370,4896,370C4800,370,4704,370,4608,370C4512,370,4416,370,4320,370C4224,370,4128,370,4032,370C3936,370,3840,370,3744,370C3648,370,3552,370,3456,370C3360,370,3264,370,3168,370C3072,370,2976,370,2880,370C2784,370,2688,370,2592,370C2496,370,2400,370,2304,370C2208,370,2112,370,2016,370C1920,370,1824,370,1728,370C1632,370,1536,370,1440,370C1344,370,1248,370,1152,370C1056,370,960,370,864,370C768,370,672,370,576,370C480,370,384,370,288,370C192,370,96,370,48,370L0,370Z"/><defs><linearGradient id="sw-gradient-2" x1="0" x2="0" y1="1" y2="0"><stop stop-color="rgba(124.857, 0, 132.424, 1)" offset="0%"/><stop stop-color="rgba(229, 179, 255, 1)" offset="100%"/></linearGradient></defs><path style="transform:translate(0, 100px); opacity:0.8" fill="url(#sw-gradient-2)" d="M0,148L48,123.3C96,99,192,49,288,80.2C384,111,480,222,576,240.5C672,259,768,185,864,129.5C960,74,1056,37,1152,43.2C1248,49,1344,99,1440,98.7C1536,99,1632,49,1728,61.7C1824,74,1920,148,2016,178.8C2112,210,2208,197,2304,197.3C2400,197,2496,210,2592,228.2C2688,247,2784,271,2880,265.2C2976,259,3072,222,3168,197.3C3264,173,3360,160,3456,172.7C3552,185,3648,222,3744,209.7C3840,197,3936,136,4032,129.5C4128,123,4224,173,4320,209.7C4416,247,4512,271,4608,289.8C4704,308,4800,321,4896,326.8C4992,333,5088,333,5184,283.7C5280,234,5376,136,5472,111C5568,86,5664,136,5760,166.5C5856,197,5952,210,6048,203.5C6144,197,6240,173,6336,191.2C6432,210,6528,271,6624,296C6720,321,6816,308,6864,302.2L6912,296L6912,370L6864,370C6816,370,6720,370,6624,370C6528,370,6432,370,6336,370C6240,370,6144,370,6048,370C5952,370,5856,370,5760,370C5664,370,5568,370,5472,370C5376,370,5280,370,5184,370C5088,370,4992,370,4896,370C4800,370,4704,370,4608,370C4512,370,4416,370,4320,370C4224,370,4128,370,4032,370C3936,370,3840,370,3744,370C3648,370,3552,370,3456,370C3360,370,3264,370,3168,370C3072,370,2976,370,2880,370C2784,370,2688,370,2592,370C2496,370,2400,370,2304,370C2208,370,2112,370,2016,370C1920,370,1824,370,1728,370C1632,370,1536,370,1440,370C1344,370,1248,370,1152,370C1056,370,960,370,864,370C768,370,672,370,576,370C480,370,384,370,288,370C192,370,96,370,48,370L0,370Z"/><defs><linearGradient id="sw-gradient-3" x1="0" x2="0" y1="1" y2="0"><stop stop-color="rgba(99.525, 7.507, 105.102, 1)" offset="0%"/><stop stop-color="rgba(229, 179, 255, 1)" offset="100%"/></linearGradient></defs><path style="transform:translate(0, 150px); opacity:0.7" fill="url(#sw-gradient-3)" d="M0,0L48,24.7C96,49,192,99,288,135.7C384,173,480,197,576,222C672,247,768,271,864,259C960,247,1056,197,1152,191.2C1248,185,1344,222,1440,252.8C1536,284,1632,308,1728,320.7C1824,333,1920,333,2016,277.5C2112,222,2208,111,2304,67.8C2400,25,2496,49,2592,74C2688,99,2784,123,2880,166.5C2976,210,3072,271,3168,277.5C3264,284,3360,234,3456,197.3C3552,160,3648,136,3744,117.2C3840,99,3936,86,4032,104.8C4128,123,4224,173,4320,185C4416,197,4512,173,4608,166.5C4704,160,4800,173,4896,197.3C4992,222,5088,259,5184,228.2C5280,197,5376,99,5472,86.3C5568,74,5664,148,5760,166.5C5856,185,5952,148,6048,129.5C6144,111,6240,111,6336,104.8C6432,99,6528,86,6624,80.2C6720,74,6816,74,6864,74L6912,74L6912,370L6864,370C6816,370,6720,370,6624,370C6528,370,6432,370,6336,370C6240,370,6144,370,6048,370C5952,370,5856,370,5760,370C5664,370,5568,370,5472,370C5376,370,5280,370,5184,370C5088,370,4992,370,4896,370C4800,370,4704,370,4608,370C4512,370,4416,370,4320,370C4224,370,4128,370,4032,370C3936,370,3840,370,3744,370C3648,370,3552,370,3456,370C3360,370,3264,370,3168,370C3072,370,2976,370,2880,370C2784,370,2688,370,2592,370C2496,370,2400,370,2304,370C2208,370,2112,370,2016,370C1920,370,1824,370,1728,370C1632,370,1536,370,1440,370C1344,370,1248,370,1152,370C1056,370,960,370,864,370C768,370,672,370,576,370C480,370,384,370,288,370C192,370,96,370,48,370L0,370Z"/></svg>